<svg width="92" height="91" viewBox="0 0 92 91" fill="none" xmlns="http://www.w3.org/2000/svg">
<path d="M45.8992 90.4837C70.6424 90.4837 90.7007 70.4213 90.7007 45.673C90.7007 20.9247 70.6424 0.862305 45.8992 0.862305C21.1561 0.862305 1.09778 20.9247 1.09778 45.673C1.09778 70.4213 21.1561 90.4837 45.8992 90.4837Z" stroke="black" stroke-width="1.025"/>
<path d="M70.0621 52.8924C70.0422 52.7331 70.0322 52.5738 70.0023 52.4144C69.9326 51.9932 69.6838 51.6845 69.3453 51.4405C69.2756 51.3937 69.2159 51.3599 69.196 51.2673C69.186 51.2235 69.1363 51.1826 69.0964 51.1508C68.977 51.0542 68.8574 50.9626 68.7379 50.867L57.4181 41.8969C54.7101 39.7469 52.0021 37.598 49.2842 35.4491L40.6823 28.6309C39.4676 27.663 38.243 26.6961 37.0184 25.7281C36.9089 25.6415 36.8094 25.5449 36.7099 25.4593C36.6505 25.4165 36.5871 25.3795 36.5206 25.3488C36.2717 25.2442 36.0228 25.2472 35.764 25.279C35.6047 25.299 35.4454 25.3219 35.2861 25.3557C34.5494 25.515 33.972 25.9154 33.5538 26.5377C33.3824 26.7855 33.2764 27.0725 33.2452 27.3722C33.2452 27.423 33.2452 27.4788 33.2253 27.5236C33.1755 27.6231 33.2054 27.7058 33.2552 27.7914C33.2851 27.8303 33.3049 27.8671 33.3448 27.8791C33.4344 27.901 33.4841 27.9607 33.5438 28.0135L38.5617 32.3751C40.6126 34.1506 42.6536 35.9241 44.6945 37.6996L49.5032 41.8749C51.2554 43.3965 52.9977 44.9171 54.75 46.4387L60.3053 51.2603C61.3407 52.1625 62.3761 53.0647 63.4215 53.9659C63.4812 54.0236 63.551 54.0804 63.6107 54.1401C63.8795 54.3921 64.1782 54.6102 64.4769 54.8183C64.666 54.9477 64.8453 55.0792 64.9846 55.2654C65.0444 55.3421 65.124 55.3689 65.2036 55.3879C65.2435 55.3968 65.2633 55.3749 65.2733 55.35C65.2932 55.3102 65.3032 55.2684 65.3231 55.2265C65.758 54.0697 66.4935 53.0498 67.4537 52.272C67.6528 52.1037 67.8818 51.9603 68.1108 51.8398C68.2801 51.7542 68.4592 51.6905 68.6483 51.6526C68.718 51.6377 68.7877 51.6427 68.8674 51.6596C69.0764 51.7064 69.2656 51.811 69.415 51.9663C69.4744 52.03 69.5247 52.1018 69.5643 52.1794C69.634 52.3089 69.6739 52.4513 69.6938 52.5977C69.7137 52.8297 69.7037 53.0637 69.6738 53.2967C69.6141 53.7378 69.4548 54.1441 69.2756 54.5434C68.957 55.2395 68.5289 55.8688 68.0411 56.4554C67.4327 57.1904 66.7179 57.8305 65.9204 58.3543C65.5123 58.6182 65.0942 58.8393 64.6263 58.9926C64.4072 59.0663 64.1782 59.1141 63.9392 59.142C63.6505 59.1769 63.3718 59.1161 63.1129 59.0016C63.078 58.9861 63.0472 58.9626 63.0232 58.9329C62.8839 58.7068 62.7943 58.4639 62.8242 58.188C62.8441 58.0466 62.8839 57.9132 62.9536 57.7937C63.093 57.5597 63.2324 57.3287 63.3818 57.1026C63.4515 56.9861 63.551 56.8826 63.6307 56.775C63.7501 56.6376 63.8795 56.5151 64.0288 56.4235C64.208 56.309 64.4072 56.2054 64.5964 56.1058C64.6998 56.0488 64.8167 56.0206 64.9348 56.0242C65.0145 56.0292 65.0643 56.0033 65.0942 55.9306C65.1041 55.9037 65.1239 55.8788 65.1339 55.8529C65.1538 55.8161 65.1539 55.7842 65.1141 55.7553C65.0444 55.6916 64.9746 55.6269 64.9049 55.5651C64.6262 55.3281 64.3474 55.0941 64.0687 54.8551C61.1814 52.3597 58.2843 49.8632 55.3971 47.3667C53.0973 45.3831 50.8074 43.3985 48.5076 41.4139L41.5783 35.4322C39.0595 33.2514 36.5307 31.0706 34.0019 28.8898C33.4941 28.4457 32.9764 28.0035 32.4587 27.5554C32.403 27.5037 32.3368 27.4645 32.2647 27.4404C32.1926 27.4164 32.1161 27.4081 32.0405 27.416C30.6865 27.4937 29.661 28.2445 29.0637 28.9884C28.8247 29.2801 28.6356 29.5998 28.5062 29.9523C28.3569 30.3466 28.2871 30.7519 28.327 31.1771C28.3469 31.3265 28.3767 31.4639 28.4265 31.6003L28.5759 31.9907C28.6854 32.0843 28.795 32.1799 28.9045 32.2705C32.9366 35.4561 36.9687 38.6396 40.9908 41.8242C41.18 41.9735 41.3792 42.1229 41.5684 42.2723C41.6181 42.3111 41.658 42.328 41.7277 42.2902C41.7614 42.2688 41.7996 42.2555 41.8394 42.2514C41.8791 42.2472 41.9192 42.2523 41.9566 42.2663C42.0123 42.2808 42.0709 42.2794 42.1258 42.2623C42.2154 42.2384 42.2951 42.2484 42.3847 42.2543C42.5241 42.2623 42.6635 42.2733 42.8029 42.2633C43.1513 42.2384 43.4899 42.2434 43.8284 42.3011C43.8714 42.3063 43.915 42.3053 43.9578 42.2982C44.0972 42.2812 44.2365 42.2514 44.3759 42.2434C44.8438 42.2175 45.2819 42.3191 45.7001 42.5411C46.0457 42.7183 46.3533 42.9611 46.606 43.2561C46.7155 43.3786 46.8251 43.5001 46.9246 43.6216C46.9645 43.6594 46.9943 43.7002 47.0341 43.7311C47.2233 43.8705 47.4024 44.0199 47.6016 44.1404C48.1989 44.5019 48.7366 44.942 49.2343 45.4299C50.001 46.1867 50.668 47.0332 51.2654 47.9294C51.355 48.0628 51.4546 48.1913 51.5541 48.3147C51.7632 48.5637 51.9723 48.8077 52.1714 49.0546C52.4701 49.4031 52.8086 49.7069 53.177 49.9648C53.3263 50.0644 53.4756 50.1629 53.615 50.2585C53.9336 50.4637 54.2223 50.6997 54.4911 50.9606C54.7599 51.2225 54.9689 51.5312 55.178 51.8408C55.2576 51.9564 55.3274 52.0739 55.4071 52.1914C55.865 52.9044 56.3828 53.5755 56.9104 54.2407C56.9303 54.2746 56.9701 54.3074 56.99 54.3443C57.1095 54.5414 57.2688 54.6918 57.4579 54.8332C59.1604 56.1775 60.8629 57.5258 62.5653 58.8731L62.6848 58.9687C62.7346 59.0036 62.7744 59.0414 62.7943 59.1042C62.8042 59.1918 62.874 59.2396 62.9436 59.2824C63.1726 59.4158 63.4115 59.4716 63.6704 59.4856C63.9591 59.5015 64.2478 59.4517 64.5166 59.379C64.8352 59.2954 65.1439 59.1719 65.4426 59.0235C66.0067 58.7325 66.5346 58.3762 67.0156 57.962C67.8288 57.278 68.5308 56.4717 69.0964 55.5721C69.4549 55.0055 69.7535 54.409 69.9227 53.7597C70.0123 53.4222 70.0422 53.1782 70.0621 52.8934V52.8924Z" fill="black"/>
<path d="M29.7209 61.5568H30.5274C30.5971 61.5568 30.6667 61.5488 30.7165 61.5926C30.8061 61.6574 30.8957 61.6504 30.9953 61.6434C31.1745 61.6305 31.3536 61.6116 31.5428 61.6016C31.7618 61.5897 31.9809 61.5807 32.1999 61.5777C32.3592 61.5747 32.5285 61.5817 32.6977 61.5857C32.8072 61.5887 32.9267 61.6175 33.0262 61.5916C33.2552 61.5349 33.4942 61.5648 33.7232 61.5219C33.8128 61.505 33.9124 61.4941 34.002 61.4841C34.1912 61.4632 34.3703 61.4333 34.5495 61.4283C35.1469 61.4114 35.7542 61.4014 36.3516 61.3935C36.491 61.3915 36.6303 61.4064 36.7697 61.4114C37.2177 61.4263 37.6558 61.4303 38.1038 61.3556C38.4921 61.2909 38.8803 61.2342 39.2786 61.2401C39.4777 61.2431 39.6768 61.2162 39.8659 61.1983C40.0053 61.1864 40.0751 61.0888 40.0551 60.9553C40.0551 60.9265 40.0352 60.8996 40.0252 60.8727C40.0053 60.8259 40.0253 60.787 40.0551 60.7512C40.085 60.7124 40.1248 60.6765 40.1547 60.6367C40.2144 60.569 40.2642 60.5032 40.314 60.4296C40.4733 60.1926 40.523 59.9476 40.3637 59.6877C40.3438 59.6419 40.3538 59.604 40.3936 59.5732C40.4708 59.505 40.5695 59.4663 40.6724 59.4636C40.7321 59.4636 40.7919 59.4537 40.8417 59.4198C40.9612 59.3372 41.0906 59.3651 41.22 59.384C41.2499 59.388 41.2697 59.4288 41.2498 59.4507C41.2299 59.4806 41.2001 59.5055 41.1802 59.5363C41.1702 59.5672 41.1503 59.603 41.1403 59.6379C41.1303 59.7166 41.2001 59.7833 41.2797 59.7634C41.2999 59.7569 41.3199 59.7496 41.3395 59.7415C41.4888 59.6807 41.6381 59.615 41.7875 59.5612C41.9069 59.5174 41.9865 59.4517 41.9965 59.3143C42.0065 59.2366 42.0463 59.2127 42.116 59.2336C42.2454 59.2655 42.365 59.2963 42.4745 59.3481C42.7234 59.4646 42.9821 59.5264 43.2609 59.5473C43.5795 59.5722 43.8882 59.6379 44.2068 59.7176C44.5055 59.7942 44.8041 59.86 45.1127 59.8998C45.2023 59.9117 45.2919 59.9386 45.3815 59.9625C45.4413 59.9785 45.4712 60.0093 45.4613 60.0512C45.4613 60.1199 45.4313 60.1746 45.3716 60.1866C45.3218 60.1995 45.2621 60.2045 45.2024 60.2095C45.1128 60.2155 45.0232 60.2224 44.9435 60.2214C44.899 60.2225 44.8548 60.2137 44.8141 60.1955C44.7344 60.1577 44.6448 60.1637 44.5552 60.1687C44.4557 60.1746 44.3959 60.2543 44.4158 60.3519C44.4158 60.3987 44.4456 60.4355 44.4855 60.4544C44.5266 60.473 44.5702 60.4855 44.6149 60.4913C44.8439 60.5222 45.0729 60.551 45.3019 60.5102C45.4612 60.4843 45.6105 60.4674 45.7599 60.4515C45.9191 60.4365 46.0485 60.4047 46.1083 60.2324C46.1182 60.1766 46.1879 60.1537 46.2278 60.1687C46.3472 60.2045 46.4469 60.2553 46.5564 60.3011V60.3379C46.5464 60.351 46.5324 60.3605 46.5165 60.3648C46.2676 60.4644 46.0187 60.57 45.7499 60.6277C45.6503 60.6496 45.5707 60.6805 45.5409 60.788C45.5209 60.8448 45.4712 60.8607 45.4214 60.8597C45.3616 60.8587 45.3018 60.8567 45.2421 60.8538C45.1768 60.8467 45.1108 60.8543 45.0488 60.876C44.9868 60.8977 44.9304 60.933 44.8837 60.9792C44.8337 61.0323 44.7704 61.071 44.7003 61.0913C44.6303 61.1116 44.5561 61.1128 44.4855 61.0947C44.356 61.0709 44.2168 61.0838 44.0873 61.0888C44.0225 61.0943 43.9588 61.1091 43.8981 61.1326C43.8384 61.1535 43.8085 61.2043 43.7986 61.265C43.7687 61.3766 43.8185 61.4512 43.938 61.4662C43.9977 61.4741 44.0574 61.4751 44.1171 61.4771C44.2167 61.4821 44.3163 61.4851 44.4158 61.4871C44.4855 61.4891 44.5353 61.508 44.5652 61.5628C44.6349 61.6564 44.7245 61.7161 44.8241 61.7609C44.9336 61.8067 45.0331 61.8197 45.1426 61.7838C45.3118 61.7311 45.4811 61.6942 45.6504 61.6474C45.72 61.6285 45.7797 61.6275 45.8494 61.6464C45.9039 61.6656 45.961 61.6763 46.0187 61.6783C46.2577 61.6773 46.4866 61.7181 46.7156 61.755C46.7813 61.7667 46.8481 61.7717 46.9148 61.7699C46.9588 61.7673 47 61.7477 47.0297 61.7151C47.0595 61.6826 47.0755 61.6397 47.0741 61.5956C47.0741 61.5249 47.0342 61.4652 46.9645 61.4473C46.9346 61.4383 46.8948 61.4363 46.855 61.4303C46.6957 61.4024 46.626 61.3228 46.6061 61.1545C46.5961 61.1186 46.5961 61.0818 46.5861 61.0469C46.5762 61.0051 46.5365 60.9553 46.5464 60.9265C46.5763 60.8757 46.636 60.8946 46.6858 60.8926C46.7356 60.8916 46.7952 60.8966 46.845 60.8926C46.9346 60.8846 46.9944 60.9175 47.0243 61.0131C47.0442 61.0828 47.1039 61.1127 47.1736 61.1127C47.2135 61.1137 47.2632 61.1137 47.3031 61.1117C47.4325 61.1067 47.552 61.1196 47.6714 61.1654C47.771 61.2023 47.8705 61.2093 47.97 61.1983C48.1293 61.1814 48.2986 61.1744 48.4579 61.1555C48.5873 61.1376 48.7367 61.1236 48.8661 61.0818C49.0851 61.0121 49.3042 60.9225 49.5232 60.8408C49.6427 60.796 49.7721 60.7502 49.8916 60.7074C50.0708 60.6466 50.25 60.6217 50.4292 60.6536C50.6084 60.6835 50.7776 60.6476 50.9568 60.6217C51.0663 60.6058 51.1659 60.5759 51.2755 60.558C51.3863 60.5473 51.4909 60.5017 51.5741 60.4276C51.6139 60.3897 51.6737 60.3818 51.7334 60.3628C51.7931 60.3419 51.823 60.2981 51.8429 60.2364C51.8628 60.1587 51.813 60.079 51.7334 60.077C51.5841 60.0751 51.4348 60.0701 51.2954 60.089C51.0465 60.1219 50.7976 60.093 50.5587 60.0502C50.5006 60.0418 50.4437 60.0264 50.3894 60.0044C50.2599 59.9536 50.1305 59.8978 50.0011 59.842C49.9911 59.8381 49.9811 59.8171 49.9811 59.8092C49.9911 59.7982 50.0011 59.7863 50.021 59.7843C50.0708 59.7783 50.1306 59.7723 50.1903 59.7713C50.4492 59.7634 50.7079 59.7584 50.9568 59.7484C51.1957 59.7395 51.4248 59.7285 51.6638 59.7136C51.7434 59.7086 51.813 59.7186 51.8529 59.8112C51.8728 59.843 51.9225 59.8689 51.9624 59.8729C52.0619 59.8839 52.1515 59.9187 52.2411 59.9456C52.3108 59.9665 52.3805 59.9725 52.4502 59.9824C52.5896 60.0004 52.729 60.0073 52.8584 60.0631C52.8982 60.079 52.9082 60.1268 52.8883 60.1537C52.8784 60.1587 52.8783 60.1647 52.8684 60.1697C52.8684 60.1756 52.8584 60.1816 52.8584 60.1846C52.7741 60.2375 52.7045 60.3107 52.6558 60.3975C52.6071 60.4843 52.5809 60.582 52.5796 60.6815C52.5796 60.7323 52.5398 60.7582 52.49 60.7661C52.2113 60.8149 51.9326 60.8617 51.6538 60.9115C51.4646 60.9434 51.2954 60.9912 51.146 61.1176C51.1162 61.1495 51.0564 61.1664 51.0066 61.1784C50.927 61.1983 50.8374 61.2093 50.7478 61.2252C50.698 61.2361 50.6382 61.2451 50.5785 61.263C50.5465 61.2719 50.5189 61.292 50.5006 61.3196C50.4823 61.3472 50.4746 61.3805 50.4789 61.4134C50.4889 61.4781 50.5387 61.5269 50.6183 61.5269C50.688 61.5269 50.7477 61.5209 50.8174 61.51C50.9966 61.4801 51.1759 61.4482 51.3551 61.4114C51.4174 61.3951 51.4833 61.3975 51.5443 61.4184C51.6837 61.4682 51.813 61.4612 51.9624 61.4363C52.1017 61.4114 52.2511 61.4005 52.3905 61.3855C52.4502 61.3785 52.51 61.3915 52.5399 61.4582C52.5498 61.5 52.5896 61.4951 52.6294 61.4871C52.8286 61.4443 53.0376 61.4373 53.2467 61.4383C53.3761 61.4393 53.5056 61.4363 53.635 61.4602C53.9536 61.519 54.1925 61.3925 54.4016 61.1804C54.4614 61.1177 54.521 61.0489 54.5708 60.9792C54.6704 60.8538 54.7898 60.792 54.9491 60.804C55.2777 60.8279 55.5366 60.6994 55.7656 60.4933C55.7956 60.472 55.8294 60.4564 55.8651 60.4475C55.9945 60.4216 56.114 60.3808 56.2434 60.329C56.3729 60.2742 56.5023 60.2453 56.6417 60.2404C56.8408 60.2344 57.0399 60.1985 57.2291 60.1418C57.4083 60.087 57.5974 60.0651 57.7865 60.0671C58.0056 60.0701 58.2146 60.0292 58.4138 59.9715C58.6228 59.9117 58.8419 59.857 59.0509 59.8002C59.2501 59.7454 59.4293 59.6538 59.5986 59.5294C59.7977 59.383 59.8375 59.1898 59.7976 58.9647C59.7578 58.8134 59.6882 58.676 59.5986 58.5525C59.4592 58.3802 59.3297 58.2059 59.1804 58.0377C58.8419 57.6214 58.5034 57.1952 58.1948 56.7531C58.0653 56.5679 57.9061 56.4026 57.7568 56.2293C57.6174 56.056 57.458 55.8887 57.3186 55.7125C57.0299 55.352 56.7512 54.9836 56.4624 54.6281C56.2633 54.3911 56.0543 54.168 55.8452 53.9439C55.5266 53.6034 55.1981 53.2668 54.8695 52.9282C54.77 52.8217 54.6903 52.7032 54.6107 52.5797C54.4613 52.3547 54.2921 52.1386 54.1328 51.9195C54.0233 51.7651 53.9038 51.6158 53.7943 51.4594C53.6363 51.2236 53.4451 51.0116 53.2268 50.8301C52.9878 50.6359 52.739 50.4447 52.5 50.2545C52.2013 50.0185 51.9326 49.7566 51.6638 49.4778C51.4951 49.2957 51.345 49.0972 51.2157 48.8853C51.0265 48.5826 50.8174 48.2918 50.5984 48.009C50.4391 47.8118 50.2998 47.6107 50.1504 47.4115C49.5929 46.6448 48.9457 45.9597 48.2189 45.3502C48.0397 45.2009 47.8606 45.0416 47.6914 44.8862C47.542 44.7498 47.3826 44.6134 47.2333 44.473C47.1537 44.3933 47.0641 44.3086 46.9944 44.217C46.855 44.0368 46.7156 43.8655 46.5265 43.7331C46.407 43.6524 46.3273 43.5439 46.2377 43.4313C46.073 43.1951 45.8405 43.0145 45.5707 42.9135C45.3716 42.8398 45.1526 42.794 44.9336 42.7622C44.6239 42.7143 44.311 42.6897 43.9976 42.6885C43.8284 42.6885 43.709 42.7761 43.5696 42.8438C43.47 42.9783 43.3704 43.1147 43.3604 43.2919C43.3556 43.3022 43.3532 43.3134 43.3532 43.3248C43.3532 43.3362 43.3556 43.3474 43.3604 43.3577C43.3903 43.5897 43.261 43.7271 43.0818 43.8356C42.9723 43.8994 42.8627 43.9551 42.7532 44.0129C42.7133 44.0328 42.6735 44.0547 42.6337 44.0677C42.5242 44.1025 42.4147 43.998 42.4346 43.8785C42.4524 43.8149 42.491 43.7592 42.5441 43.7201C42.6337 43.6654 42.7134 43.6036 42.8129 43.5648C42.9424 43.509 43.0419 43.4154 43.1116 43.2929C43.1315 43.2551 43.1614 43.2202 43.1813 43.1824C43.2112 43.1356 43.2012 43.1057 43.1514 43.0778C42.9963 42.9962 42.8276 42.9436 42.6536 42.9225C42.5278 42.9117 42.4015 42.9083 42.2753 42.9125C42.0961 42.9165 42.0066 42.9962 41.9767 43.1714V43.1914C41.9866 43.3636 41.897 43.4801 41.7775 43.5867C41.668 43.6793 41.5783 43.7849 41.4887 43.8924C41.3593 44.0517 41.1802 44.1553 40.9811 44.221C40.3539 44.4281 39.8062 44.7607 39.2885 45.163C39.189 45.2387 39.0993 45.3283 39.0097 45.414C38.9415 45.4717 38.8986 45.554 38.8903 45.643C38.8903 45.7496 38.8305 45.8382 38.7808 45.9248C38.5717 46.2445 38.3726 46.5651 38.1635 46.8818C38.0142 47.0949 37.8649 47.304 37.7155 47.5091C37.606 47.6575 37.4865 47.7959 37.3769 47.9373C37.357 47.9672 37.367 47.9901 37.3969 48.003C37.4566 48.0259 37.5064 48.018 37.5662 47.9921C37.6956 47.9323 37.825 47.8796 37.9445 47.8208C38.0839 47.7591 38.2233 47.7172 38.3627 47.6934C38.4153 47.6845 38.4686 47.6815 38.5219 47.6844C38.6015 47.6914 38.6613 47.7491 38.6812 47.8338C38.6925 47.8733 38.6897 47.9156 38.6733 47.9533C38.657 47.9911 38.6282 48.022 38.5917 48.0409C38.5484 48.0647 38.5012 48.0806 38.4523 48.0877C38.1237 48.1434 37.8449 48.2948 37.5662 48.4581C37.5562 48.4651 37.5363 48.4741 37.5263 48.483C37.3073 48.6722 37.0386 48.7598 36.7498 48.7937C36.5597 48.8164 36.3704 48.8456 36.1823 48.8813C36.0429 48.9082 35.8936 48.9361 35.7543 48.9909C35.2863 49.185 34.8183 49.3991 34.3902 49.6879C34.3504 49.7158 34.3105 49.7447 34.2707 49.7775C34.2398 49.7993 34.2129 49.8263 34.1911 49.8572C34.1494 49.9817 34.0647 50.0873 33.9522 50.155C33.9223 50.1729 33.9025 50.2237 33.8825 50.2615C33.7332 50.5274 33.554 50.7644 33.3648 50.9964C33.2155 51.1707 33.086 51.3569 32.9566 51.5441C32.8172 51.7522 32.7176 51.9792 32.6479 52.2212C32.5782 52.4742 32.4986 52.7261 32.4289 52.98C32.3791 53.1722 32.2995 53.3524 32.1999 53.5197C32.0705 53.7179 31.9411 53.9141 31.8017 54.1023C31.6125 54.3632 31.4632 54.649 31.3736 54.9597C31.3039 55.1688 31.2243 55.3739 31.1347 55.5751C31.0849 55.6936 31.0152 55.8061 30.9355 55.9116C30.7762 56.1247 30.597 56.3179 30.4078 56.4992C30.2884 56.6137 30.1789 56.7411 30.0594 56.8656C29.9399 57.001 29.8205 57.1385 29.701 57.2769C29.6313 57.3605 29.5517 57.4432 29.492 57.5348C29.4024 57.6772 29.2928 57.8017 29.1633 57.9102C29.004 58.0416 28.8647 58.19 28.7453 58.3613C28.6955 58.439 28.6457 58.5236 28.6158 58.6122C28.576 58.7337 28.5162 58.8413 28.4465 58.9428C28.3919 59.0116 28.3513 59.0904 28.3271 59.1749C28.3176 59.2105 28.3002 59.2434 28.276 59.2712C28.2519 59.299 28.2216 59.3209 28.1877 59.3352C28.1279 59.368 28.0583 59.3989 27.9886 59.4278C27.8592 59.4855 27.7496 59.5592 27.6899 59.7026C27.67 59.7713 27.6202 59.8052 27.5505 59.8191C27.4808 59.8341 27.4012 59.85 27.3315 59.8699C27.212 59.9028 27.1224 59.9655 27.0826 60.09C27.0527 60.1796 26.9931 60.2175 26.9134 60.2423C26.6645 60.318 26.4156 60.3847 26.1667 60.4236C26.0672 60.4395 25.9675 60.4545 25.858 60.4744C25.7386 60.4993 25.6191 60.5421 25.5196 60.6068C25.4203 60.6591 25.3427 60.7448 25.3006 60.8488C25.2508 60.9673 25.2806 61.0669 25.3901 61.1336C25.4275 61.157 25.4676 61.1757 25.5096 61.1893C25.6788 61.2342 25.8481 61.2969 26.0174 61.3158C26.3957 61.3556 26.774 61.4034 27.1623 61.3965C27.2121 61.3955 27.2717 61.3955 27.3315 61.3895C27.3646 61.3872 27.3968 61.3778 27.426 61.362C27.4552 61.3462 27.4807 61.3243 27.5008 61.2979C27.5218 61.2751 27.5375 61.2479 27.547 61.2184C27.5564 61.1889 27.5594 61.1576 27.5556 61.1269C27.5518 61.0961 27.5414 61.0665 27.5251 61.0402C27.5087 61.0138 27.4868 60.9913 27.4609 60.9743C27.4012 60.9364 27.3415 60.9085 27.2917 60.8777C27.242 60.8528 27.1922 60.8309 27.1523 60.804C27.1424 60.799 27.1424 60.7771 27.1424 60.7661C27.1523 60.7552 27.1622 60.7432 27.1722 60.7412C27.202 60.7373 27.232 60.7343 27.2618 60.7373C27.7596 60.793 28.2574 60.7412 28.7453 60.6576C28.9046 60.6307 29.0638 60.5978 29.2231 60.564C29.3625 60.5321 29.5019 60.4734 29.5716 60.329C29.6014 60.2712 29.6612 60.2523 29.7209 60.2493C29.7807 60.2463 29.8503 60.2433 29.92 60.2423C30.2784 60.2384 30.6469 60.2364 31.0152 60.2334H31.1048C31.2541 60.2374 31.3935 60.2015 31.4931 60.0711C31.523 60.0283 31.5628 60.0282 31.6026 60.0551C31.6325 60.0701 31.6523 60.086 31.6722 60.1049C31.732 60.1517 31.7619 60.2075 31.7221 60.2792C31.6922 60.3409 31.6822 60.4037 31.7221 60.4664C31.742 60.4953 31.7719 60.5291 31.7719 60.556C31.7619 60.6078 31.7121 60.6078 31.6623 60.6128C31.3935 60.6526 31.1147 60.6865 30.836 60.6895C30.4178 60.6934 30.0096 60.7562 29.6015 60.8657C29.3725 60.9284 29.1434 61.0111 28.9144 61.0878C28.8583 61.1064 28.8048 61.1322 28.7552 61.1645C28.7202 61.1882 28.6897 61.2183 28.6655 61.2531C28.566 61.3915 28.6257 61.5359 28.795 61.5528C28.8647 61.5598 28.9444 61.5568 29.0141 61.5568H29.7209ZM47.9004 55.4795C48.0398 55.4904 48.1891 55.4884 48.3384 55.5153C48.6271 55.5701 48.9258 55.6029 49.2245 55.6298C49.2842 55.6348 49.344 55.6418 49.3938 55.6567C49.5033 55.6856 49.5531 55.7722 49.5431 55.8718C49.5232 55.9764 49.4535 56.0361 49.344 56.0371C49.3207 56.0371 49.2975 56.0361 49.2743 56.0341C48.9955 56.0013 48.7069 55.9803 48.4281 55.9335C48.0299 55.8668 47.6315 55.8678 47.2333 55.9714C46.9147 56.055 46.5862 56.0799 46.2576 56.0769C46.2075 56.0766 46.1574 56.0712 46.1083 56.061C45.9988 56.0361 45.959 55.9415 45.9888 55.8399C46.0187 55.7483 46.0984 55.6975 46.188 55.6826C46.2577 55.6697 46.3274 55.6707 46.407 55.6687C46.6758 55.6597 46.9545 55.6388 47.2233 55.5681C47.4424 55.5093 47.6714 55.4785 47.9004 55.4795ZM40.6724 49.196C40.6824 49.1671 40.6924 49.1233 40.7123 49.0845C40.7521 48.9998 40.8019 48.9152 40.8517 48.8355C41.001 48.5965 41.1603 48.3575 41.3196 48.1245C41.7178 47.5679 42.0961 47.0053 42.4346 46.4157C42.4564 46.3769 42.4831 46.341 42.5142 46.3092C42.5939 46.2176 42.7333 46.2534 42.7631 46.3759C42.783 46.4277 42.783 46.4775 42.7631 46.5253C42.7233 46.592 42.6935 46.6577 42.6636 46.7205C42.4246 47.1218 42.1757 47.5211 41.9069 47.9055C41.668 48.254 41.439 48.6075 41.2001 48.958C41.1404 49.0426 41.0806 49.1283 41.0208 49.207C40.981 49.2567 40.9213 49.2966 40.8715 49.3344C40.8317 49.3613 40.7918 49.3613 40.742 49.3384C40.6923 49.3105 40.6824 49.2647 40.6724 49.196ZM37.5861 60.7751V60.793C37.5164 60.793 37.4467 60.795 37.3671 60.792C37.3571 60.791 37.3173 60.7781 37.3173 60.7651C37.3073 60.7412 37.3173 60.7034 37.3272 60.6875C37.4069 60.6068 37.4865 60.5351 37.5562 60.4535C37.6757 60.317 37.8349 60.2513 38.0141 60.2035C38.1635 60.1597 38.3229 60.1448 38.4822 60.1458C38.5419 60.1467 38.6016 60.1537 38.6513 60.1935C38.721 60.2523 38.8106 60.2662 38.8903 60.2792C38.9799 60.2911 39.0695 60.3041 39.1491 60.322C39.2387 60.3409 39.2586 60.3708 39.2686 60.4554C39.2785 60.5421 39.2587 60.5799 39.1691 60.5949C39.0695 60.6148 38.96 60.6317 38.8505 60.6496C38.7012 60.6735 38.5518 60.7054 38.3925 60.7193C38.1237 60.7442 37.8549 60.7572 37.5861 60.7751ZM39.4777 50.133C39.6271 50.139 39.6967 50.2645 39.6469 50.379C39.627 50.4517 39.5673 50.4985 39.5075 50.5443C39.2288 50.7704 38.9201 50.9526 38.6214 51.1468C38.5666 51.181 38.5059 51.2046 38.4423 51.2165C38.3328 51.2364 38.2531 51.1428 38.283 51.0402C38.3029 50.9924 38.3229 50.9426 38.3527 50.9068C38.4125 50.843 38.4821 50.7833 38.5518 50.7335C38.8106 50.5493 39.0795 50.369 39.3483 50.1908C39.3981 50.1589 39.4479 50.144 39.4777 50.133ZM31.1744 59.8659C31.1446 59.862 31.1148 59.8629 31.0948 59.856C31.065 59.844 31.035 59.8211 31.035 59.7783C31.035 59.7454 31.0749 59.7206 31.1148 59.7255L31.1844 59.7385C31.2242 59.7534 31.2741 59.8082 31.2542 59.8261C31.2343 59.847 31.1944 59.857 31.1744 59.8659ZM32.6082 44.5377L35.8638 44.466C36.9888 44.4401 38.1137 44.4102 39.2487 44.3863C39.3788 44.3845 39.506 44.3477 39.617 44.2798C40.1945 43.9233 40.7719 43.5698 41.3593 43.2153C41.3792 43.2003 41.4092 43.1854 41.4291 43.1655C41.439 43.1525 41.439 43.1236 41.4291 43.1097C41.4191 43.0848 41.3991 43.0659 41.3792 43.045C41.1303 42.804 40.8815 42.564 40.6425 42.322C40.2343 41.9197 39.7963 41.5503 39.3583 41.1918C38.97 40.8791 38.5817 40.5664 38.2034 40.2448C37.7753 39.8794 37.3073 39.5677 36.8294 39.2659C36.7398 39.2102 36.6502 39.1564 36.5706 39.1036C36.3814 38.9941 36.2122 38.8716 36.0628 38.7222C36.0021 38.6585 35.9212 38.6177 35.8339 38.6067C35.7821 38.6033 35.733 38.5826 35.6945 38.548C35.6148 38.4813 35.5352 38.4763 35.4456 38.4783C35.0672 38.4892 34.6889 38.5012 34.3106 38.5091C34.0318 38.5151 33.7631 38.5161 33.4942 38.5211L30.8459 38.5729L28.9742 38.6107C28.2176 38.6266 27.4509 38.6406 26.6943 38.6575C26.6207 38.6603 26.5474 38.6693 26.4753 38.6844C26.4318 38.6902 26.3906 38.7073 26.3558 38.7342C26.2662 38.8328 26.1468 38.8836 26.0473 38.9752C25.9079 39.1146 25.8182 39.2908 25.7485 39.481C25.6888 39.6842 25.6589 39.8953 25.6291 40.1044C25.5892 40.4081 25.5395 40.7118 25.5096 41.0175C25.4797 41.2864 25.4697 41.5573 25.4598 41.8271C25.4399 42.0094 25.43 42.1916 25.42 42.3748C25.4101 42.5053 25.4101 42.6377 25.4001 42.7691C25.4001 43.1575 25.4199 43.5439 25.4498 43.9302C25.4697 44.0896 25.5096 44.2469 25.5395 44.4052C25.5495 44.459 25.5793 44.4959 25.6291 44.5198C25.6689 44.5407 25.7187 44.5596 25.7585 44.5934C25.8481 44.6791 25.9576 44.702 26.087 44.698C26.3259 44.692 26.5649 44.69 26.8038 44.6851L28.566 44.6422L32.1601 44.5546C32.3393 44.5496 32.5086 44.5407 32.6082 44.5377ZM61.072 37.9694L59.738 37.9923C58.1782 38.0212 56.6184 38.0514 55.0586 38.0829L53.7644 38.1158C53.7346 38.1158 53.7146 38.1208 53.6847 38.1258C53.6748 38.1258 53.6649 38.1307 53.6649 38.1357C53.6649 38.1417 53.6649 38.1526 53.6749 38.1566C53.6948 38.1795 53.7246 38.1994 53.7545 38.2224C53.7843 38.2463 53.8241 38.2682 53.8341 38.299C53.854 38.3916 53.9337 38.4404 53.9934 38.4962C54.4514 38.8706 54.8994 39.243 55.3474 39.6214C55.5067 39.7579 55.6659 39.9033 55.8153 40.0457C56.1538 40.3444 56.5023 40.6182 56.8607 40.8901C57.249 41.1878 57.6373 41.4866 58.0256 41.7883C58.1948 41.9237 58.3641 42.0671 58.5234 42.2105C58.8121 42.4575 59.1008 42.7114 59.3895 42.9534C59.6484 43.1675 59.9171 43.3746 60.1859 43.5777C60.4547 43.7769 60.7435 43.8725 61.082 43.8605C61.9979 43.8277 62.9139 43.8078 63.8298 43.7849C64.2181 43.7749 64.6064 43.7719 64.9847 43.7639L66.9161 43.7181C67.6827 43.6982 68.4394 43.6763 69.206 43.6574C69.4151 43.6514 69.6242 43.6504 69.8333 43.6474C69.893 43.6474 69.9427 43.6474 69.9925 43.6435C70.1318 43.6335 70.2414 43.5628 70.2912 43.4264C70.3211 43.3348 70.3708 43.2561 70.4206 43.1754C70.57 42.9414 70.6496 42.6835 70.6895 42.4146C70.7691 42.0004 70.7592 41.5851 70.6994 41.1699C70.6198 40.4853 70.4103 39.8222 70.0822 39.2162C69.9513 38.9701 69.7943 38.7387 69.6141 38.5261C69.4872 38.3744 69.3437 38.2374 69.1861 38.1178C68.9173 37.9137 68.6186 37.8081 68.2701 37.8161C67.3741 37.836 66.4881 37.8509 65.592 37.8688L63.6208 37.9087L61.2513 37.9565H61.072V37.9694ZM59.0709 42.4246L59.0808 42.4306L59.0709 42.4206L59.0609 42.4166C59.0609 42.4196 59.0609 42.4216 59.0709 42.4246ZM59.2402 42.555C59.2601 42.57 59.27 42.5849 59.2899 42.5999L59.2998 42.6068L59.2899 42.5959C59.2799 42.5809 59.2601 42.566 59.2501 42.5521L59.2302 42.5421L59.2402 42.555ZM59.0112 36.402L52.6294 36.422C52.2412 36.4239 51.8528 36.4319 51.4646 36.4389C51.4247 36.4389 51.3949 36.4449 51.3551 36.4528C51.3451 36.4538 51.3451 36.4777 51.3451 36.4867L51.375 36.5405C51.4248 36.5902 51.4746 36.6351 51.5144 36.6898C51.6139 36.8531 51.7733 36.9607 51.9326 37.0622C52.3009 37.2973 52.6793 37.5323 53.0377 37.7722C53.1472 37.84 53.2467 37.8659 53.3761 37.8639C54.1726 37.8519 54.9691 37.8439 55.7656 37.834L59.1604 37.7902L62.655 37.7454C63.7501 37.7314 64.8453 37.7175 65.9405 37.7015C66.4781 37.6946 67.0257 37.6846 67.5633 37.6737C67.6429 37.6727 67.7226 37.6667 67.8022 37.6577C67.852 37.6528 67.8818 37.6239 67.8918 37.5751C67.9138 37.5011 67.9181 37.4229 67.9043 37.347C67.8905 37.271 67.8589 37.1994 67.8122 37.1379C67.7126 36.9846 67.5932 36.8491 67.4438 36.7336C67.2 36.4998 66.8756 36.3686 66.5378 36.3672C65.1838 36.3712 63.8298 36.3722 62.4758 36.3791C61.321 36.3851 60.1661 36.3961 59.0112 36.405V36.402ZM31.1447 38.1606C31.9312 38.1457 32.6181 38.1307 33.305 38.1208C33.8924 38.1128 34.4898 38.1108 35.0772 38.1058C35.1369 38.1058 35.1967 38.1058 35.2565 38.1029C35.4158 38.0979 35.4356 38.063 35.346 37.9236C35.2757 37.8215 35.1993 37.7237 35.1171 37.6308C34.8234 37.3233 34.5072 37.038 34.1712 36.7774C34.0901 36.7132 34.0104 36.6471 33.9322 36.5793C33.9078 36.5542 33.8782 36.5347 33.8456 36.522C33.813 36.5093 33.7781 36.5037 33.7431 36.5056C33.315 36.5106 32.8869 36.5126 32.4688 36.5175C32.3393 36.5175 32.2199 36.5245 32.0904 36.5255C31.4632 36.5275 30.836 36.5275 30.2088 36.5305C29.243 36.5335 28.2872 36.5385 27.3315 36.5424C27.0925 36.5444 27.0926 36.5484 26.9731 36.7555C26.8636 36.9447 26.8138 37.1459 26.8138 37.364C26.8237 37.4735 26.8237 37.583 26.8337 37.6926C26.8436 37.8579 26.9233 37.9993 27.003 38.1377C27.0329 38.1795 27.0727 38.1975 27.1125 38.1994C27.1822 38.1994 27.2518 38.2014 27.3116 38.1994C28.2872 38.1875 29.263 38.1726 30.2287 38.1606C30.5672 38.1566 30.9057 38.1606 31.1447 38.1606ZM65.592 55.6726C65.602 55.7593 65.602 55.825 65.6219 55.8887C65.6618 56.0779 65.7912 56.1944 65.9803 56.2134C66.1055 56.2258 66.2318 56.2081 66.3487 56.1616C66.5379 56.0899 66.7071 55.9893 66.8664 55.8738C67.185 55.6428 67.4836 55.3769 67.7524 55.0861C68.2402 54.5534 68.6783 53.9748 69.0068 53.3206C69.1263 53.0776 69.2259 52.8277 69.2657 52.5568C69.2891 52.4412 69.2822 52.3215 69.2458 52.2093C69.186 52.0131 69.0567 51.9046 68.8476 51.9026C68.7669 51.9005 68.6864 51.9106 68.6087 51.9324C68.4295 51.9862 68.2702 52.0579 68.1109 52.1645C67.7425 52.4214 67.414 52.7221 67.1153 53.0507C66.6374 53.5616 66.2192 54.1162 65.9006 54.7376C65.801 54.9338 65.7114 55.1339 65.6517 55.347C65.6218 55.4605 65.6119 55.576 65.592 55.6726Z" fill="black"/>
<path d="M63.3219 58.1862C63.314 58.3769 63.3588 58.566 63.4513 58.7329C63.5111 58.8335 63.6107 58.8863 63.7301 58.8833C63.787 58.8816 63.8436 58.8749 63.8993 58.8634C64.5564 58.7349 65.1538 58.472 65.7213 58.1235C66.4081 57.6895 67.0342 57.1661 67.5831 56.5671C68.1017 56.0006 68.5496 55.3734 68.9171 54.699C69.0565 54.4341 69.1859 54.1622 69.2855 53.8814C69.2954 53.8555 69.3054 53.8207 69.2954 53.7978C69.2736 53.7459 69.247 53.6962 69.2158 53.6494C69.2158 53.6464 69.1859 53.6534 69.176 53.6623C69.1461 53.7171 69.1063 53.7739 69.0764 53.8316C68.728 54.4639 68.3198 55.0465 67.8021 55.5514C67.4436 55.8999 67.0454 56.1936 66.5875 56.4037C66.2888 56.5382 65.9801 56.6278 65.6615 56.6557C65.4823 56.6706 65.2932 56.6885 65.114 56.6925C65.0045 56.6955 64.8949 56.6796 64.7854 56.6617C64.6425 56.6366 64.4956 56.6465 64.3574 56.6905C64.1383 56.7612 63.9491 56.8807 63.7898 57.056C63.5807 57.3029 63.4315 57.5868 63.3518 57.9044C63.3319 57.995 63.3319 58.0916 63.3219 58.1862ZM42.7033 59.902C42.5839 59.895 42.5142 59.889 42.4445 59.886C42.3964 59.8812 42.348 59.8879 42.303 59.9053C42.258 59.9228 42.2178 59.9507 42.1856 59.9866C42.1259 60.0543 42.0562 60.0742 41.9766 60.0852C41.8571 60.1021 41.7275 60.134 41.6081 60.1599C41.494 60.1815 41.3877 60.2327 41.2995 60.3083C41.2489 60.3515 41.1864 60.3785 41.1202 60.3859C41.0107 60.4098 40.8913 60.4387 40.7818 60.4756C40.6026 60.5343 40.5528 60.6817 40.6524 60.84C40.722 60.9545 40.8217 61.0242 40.961 61.0202C41.0407 61.0183 41.1203 61.0322 41.19 61.073C41.2597 61.1148 41.3393 61.1288 41.419 61.0999C41.4588 61.086 41.5086 61.086 41.5484 61.086C41.8272 61.088 42.1059 61.076 42.3847 61.0441C42.534 61.0262 42.6834 61.0451 42.8427 61.0521C42.9423 61.0571 43.0418 61.071 43.1413 61.078C43.3604 61.0929 43.5694 61.0342 43.7586 60.9486C43.8168 60.925 43.8697 60.8901 43.9141 60.8458C43.9586 60.8015 43.9937 60.7487 44.0174 60.6906C44.0871 60.5223 44.0274 60.367 43.8681 60.2834C43.8076 60.2559 43.7442 60.2355 43.679 60.2226C43.579 60.1976 43.4845 60.1544 43.4002 60.0952C43.2301 59.955 43.0126 59.8858 42.7929 59.902C42.7431 59.905 42.7033 59.902 42.7033 59.902ZM29.462 62.8485C29.5914 62.8236 29.7308 62.8157 29.8602 62.7699C30.0693 62.6972 30.2684 62.6026 30.4575 62.509C30.5571 62.4651 30.6268 62.3944 30.6666 62.2959C30.7164 62.1863 30.6965 62.0847 30.5969 62.032C30.2783 61.8746 29.9598 61.8129 29.6213 61.9414C29.54 61.9739 29.468 62.0263 29.4121 62.0937C29.3325 62.1983 29.2529 62.2979 29.1434 62.3715C29.0737 62.4124 29.0439 62.4801 29.024 62.5528C29.004 62.6643 29.0439 62.7649 29.1534 62.7977C29.2529 62.8266 29.3524 62.8316 29.462 62.8485ZM47.6813 62.5319C47.8406 62.5269 47.9799 62.4622 48.0993 62.3934C48.1889 62.3496 48.2188 62.263 48.2088 62.1694C48.2088 62.0688 48.1392 62.0141 48.0496 61.9822C47.9878 61.9579 47.9246 61.9373 47.8604 61.9204C47.7721 61.8978 47.6789 61.9058 47.5957 61.9431C47.5125 61.9803 47.4444 62.0447 47.4025 62.1256C47.3228 62.2809 47.3826 62.4353 47.5419 62.501C47.5916 62.5189 47.6414 62.5229 47.6813 62.5319ZM39.7762 62.3556C39.8658 62.3387 39.9754 62.3277 40.065 62.2989C40.1845 62.265 40.2441 62.1793 40.2441 62.0738C40.2444 62.0144 40.2251 61.9566 40.1891 61.9094C40.1531 61.8622 40.1024 61.8283 40.0451 61.8129C39.9281 61.7802 39.8048 61.7779 39.6867 61.8059C39.5373 61.8388 39.4477 61.9433 39.378 62.0688C39.368 62.1047 39.368 62.1545 39.368 62.1963C39.368 62.2421 39.3979 62.2819 39.4477 62.2919C39.5473 62.3178 39.6568 62.3347 39.7762 62.3556ZM42.992 62.0877C43.1015 62.0718 43.2309 62.0559 43.3504 62.036C43.44 62.022 43.4898 61.9603 43.5097 61.8766C43.5296 61.795 43.5297 61.7143 43.46 61.6536C43.3898 61.5897 43.3039 61.5457 43.2111 61.5261C43.1016 61.5042 43.0119 61.542 42.982 61.6466C42.967 61.7332 42.9252 61.813 42.8625 61.8746C42.8426 61.8946 42.8427 61.9264 42.8328 61.9543C42.8228 62.027 42.8626 62.0838 42.9423 62.0877H42.992ZM48.8261 62.036C48.836 62.0658 48.8361 62.1176 48.856 62.1634C48.8958 62.2481 49.0153 62.263 49.085 62.1953C49.1049 62.1744 49.1248 62.1495 49.1248 62.1236C49.1597 62.0189 49.1597 61.9057 49.1248 61.801C49.1149 61.788 49.1049 61.7751 49.1049 61.7631C49.0452 61.6795 48.9357 61.6775 48.8859 61.7621C48.8677 61.7935 48.8542 61.8274 48.846 61.8627C48.8361 61.9125 48.836 61.9643 48.8261 62.036ZM50.3793 61.2513C50.3693 61.1168 50.2897 61.0511 50.1603 61.086C50.1185 61.0996 50.0784 61.118 50.0408 61.1407C50.0212 61.1562 50.0056 61.1761 49.9952 61.1988C49.9848 61.2214 49.9799 61.2463 49.981 61.2712C49.981 61.325 50.0208 61.3708 50.0706 61.3787C50.1303 61.3877 50.1801 61.3927 50.2399 61.3986C50.3195 61.4056 50.3693 61.3678 50.3693 61.2931C50.3771 61.2806 50.3806 61.2659 50.3793 61.2513ZM14.2892 68.0127C14.339 68.0147 14.3788 67.9798 14.3688 67.935C14.3688 67.8892 14.329 67.8534 14.2892 67.8594C14.2494 67.8653 14.2196 67.8892 14.2196 67.9281C14.2096 67.9739 14.2394 68.0107 14.2892 68.0127Z" fill="black"/>
</svg>
