<svg width="92" height="91" viewBox="0 0 92 91" fill="none" xmlns="http://www.w3.org/2000/svg">
<path d="M46.0699 90.4437C70.813 90.4437 90.8713 70.3812 90.8713 45.633C90.8713 20.8847 70.813 0.822266 46.0699 0.822266C21.3267 0.822266 1.2684 20.8847 1.2684 45.633C1.2684 70.3812 21.3267 90.4437 46.0699 90.4437Z" stroke="black" stroke-width="1.025"/>
<path d="M45.9165 62.2877C49.8232 62.6362 53.4382 62.1164 56.8491 60.3997C64.2583 56.6694 67.9539 48.1384 64.4186 39.6304C63.5972 37.6547 62.4244 35.8952 60.9678 34.3328C60.5646 33.9016 60.0798 33.5461 59.6268 33.1617C59.1764 32.7778 58.7193 32.4016 58.2559 32.0335C57.688 31.5842 57.1125 31.1446 56.5295 30.715C55.8366 30.2082 55.1695 29.9592 54.4219 30.7071C54.1282 31.0018 53.6214 30.6762 53.6752 30.1942C53.7458 29.5589 53.5856 29.2423 52.9534 29.0212C46.8295 26.8703 40.9466 27.2895 35.4708 30.8595C31.4895 33.4555 29.2086 37.2574 28.5346 41.9586C28.2916 43.6554 28.3135 45.3931 28.7596 47.0819C28.7894 47.1935 28.9089 47.3179 29.0134 47.3598C29.0871 47.3866 29.2514 47.306 29.3052 47.2263C29.6815 46.6836 30.022 46.115 30.4172 45.5883C30.5028 45.4737 30.8483 45.401 30.9339 45.4747C31.1121 45.6251 31.3461 45.9328 31.2943 46.0951C30.9757 47.1128 30.5048 48.0737 29.6417 48.7369C29.2833 49.0118 29.3161 49.2448 29.4256 49.5654C30.235 51.9175 31.5233 53.9908 33.2128 55.7981C36.6974 59.5254 41.0202 61.6165 45.9165 62.2877ZM64.1428 47.3299C63.6788 51.5431 60.9848 54.7555 57.4425 55.7951C55.4015 56.3936 53.475 56.1456 51.8353 54.7535C49.5325 52.7988 48.3577 50.3143 48.6106 47.2283C48.7928 45.0047 49.8362 43.2222 51.3096 41.621C53.1435 39.6304 55.4772 38.9144 58.0926 38.8955C58.3524 38.8945 58.6392 38.9194 58.8692 39.025C60.6403 39.8395 62.2352 40.8612 63.1462 42.6915C63.9656 44.3375 64.2593 46.0702 64.1428 47.3299ZM35.8631 38.6734C35.9368 37.9355 36.2703 37.4078 36.8696 37.1379C36.9652 37.0941 37.1524 37.122 37.2261 37.1927C37.3545 37.3172 37.5327 37.5213 37.5068 37.6547C37.3913 38.2452 37.1046 38.7591 36.5481 39.0469C36.4087 39.1176 36.1767 39.0708 36.0124 39.009C35.9328 38.9792 35.9129 38.7909 35.8631 38.6734ZM41.9621 44.6233C41.8516 44.5626 41.6813 44.5267 41.6415 44.4361C41.5708 44.2718 41.4872 43.989 41.5668 43.9063C41.9212 43.5349 42.3235 43.2063 42.7287 42.8887C42.7974 42.8349 43.0174 42.8707 43.0851 42.9424C43.2115 43.0758 43.3708 43.279 43.3489 43.4304C43.2663 44.0348 42.5982 44.5775 41.9621 44.6233ZM43.5261 58.2179C43.5779 57.6045 44.0916 56.9971 44.7408 56.773C44.8373 56.7381 45.0245 56.786 45.0852 56.8636C45.1987 57.004 45.3411 57.2141 45.3082 57.3615C45.1699 58.0138 44.5476 58.5365 43.9383 58.5176C43.791 58.5116 43.6496 58.3105 43.5261 58.2179ZM44.8314 36.2039C44.8911 36.2318 44.9528 36.2546 45.0076 36.2905C45.2595 36.4578 45.2963 36.881 45.0872 37.1608C44.7029 37.6727 44.2559 37.8151 43.9393 37.5233C43.8873 37.4826 43.8462 37.4295 43.8198 37.3689C43.6645 36.8422 44.2659 36.1531 44.8314 36.2039ZM40.6778 31.92C40.5742 31.8582 40.4209 31.8224 40.3771 31.7328C40.1581 31.2887 40.3313 30.8126 40.7723 30.5846C41.0561 30.4382 41.4712 30.6842 41.4941 31.0118C41.526 31.4818 41.1875 31.8582 40.6778 31.92ZM45.1579 53.8533C45.5661 53.8125 45.7861 54.0326 45.7652 54.3054C45.7453 54.5842 45.6059 54.7734 45.3202 54.8312C45.0982 54.875 44.8154 54.6111 44.8762 54.3552C44.9229 54.1481 45.0882 53.9698 45.1569 53.8533H45.1579ZM56.5843 36.3662C56.5355 36.0684 56.7187 35.8962 56.9785 35.8096C57.2852 35.708 57.4853 35.8842 57.555 36.1581C57.6336 36.4558 57.4524 36.65 57.1737 36.7147C56.8939 36.7785 56.6729 36.6838 56.5843 36.3662Z" fill="black"/>
</svg>
