<svg width="92" height="91" viewBox="0 0 92 91" fill="none" xmlns="http://www.w3.org/2000/svg">
<path d="M45.8992 90.4437C70.6424 90.4437 90.7007 70.3812 90.7007 45.633C90.7007 20.8847 70.6424 0.822266 45.8992 0.822266C21.1561 0.822266 1.09778 20.8847 1.09778 45.633C1.09778 70.3812 21.1561 90.4437 45.8992 90.4437Z" stroke="black" stroke-width="1.025"/>
<path d="M33.7829 61.9849C34.1712 61.9978 34.5097 61.951 34.8383 61.8773C35.2166 61.7936 35.595 61.7011 35.9832 61.6533C36.4213 61.5995 36.8593 61.5487 37.2974 61.5527C37.7155 61.5567 38.1436 61.5716 38.5618 61.5885C39.2089 61.6154 39.846 61.6403 40.4932 61.6801C41.3593 61.7329 42.2354 61.7319 43.1016 61.7428C43.4799 61.7478 43.8484 61.7349 44.2168 61.7269C44.5055 61.7209 44.7842 61.6652 45.053 61.5736C46.3174 61.1494 47.5121 60.6077 48.6471 59.9206C48.9159 59.7613 49.1648 59.586 49.4137 59.3998C49.6825 59.1907 49.9812 59.0383 50.3098 58.9546C50.5885 58.8849 50.8672 58.7993 51.1361 58.7276C52.0122 58.4986 52.7987 58.0813 53.5355 57.5734C54.2622 57.0765 54.8795 56.4602 55.4868 55.8388C56.0144 55.3021 56.4326 54.6797 56.8408 54.0524C57.1295 53.6042 57.3784 53.1332 57.6074 52.6543C57.6457 52.5934 57.6758 52.5278 57.697 52.459C57.8164 52.1324 57.926 51.8008 58.0852 51.4911C58.1426 51.3921 58.1671 51.2774 58.155 51.1635C58.1451 51.0301 58.0653 50.9285 57.9359 50.9006C57.8065 50.8727 57.677 50.8648 57.5576 50.9504C57.1195 51.2452 56.6815 51.522 56.2534 51.8207C55.9049 52.0617 55.6261 52.3804 55.3474 52.698C55.1582 52.9151 54.9791 53.1332 54.7799 53.3443C54.541 53.6092 54.2721 53.8472 53.9834 54.0613C53.2168 54.6209 52.3805 55.0093 51.4845 55.2901C51.3849 55.322 51.2854 55.3469 51.1859 55.322C51.1498 55.3151 51.1172 55.296 51.0936 55.2679C51.0701 55.2397 51.057 55.2043 51.0565 55.1676C51.0764 54.9874 51.1261 54.8221 51.2854 54.7195C51.385 54.6538 51.4944 54.591 51.604 54.5413C51.9325 54.3959 52.271 54.2654 52.5896 54.114C53.0376 53.9039 53.4359 53.6222 53.7943 53.2776C54.2025 52.8952 54.5808 52.4949 54.9591 52.0896C55.3175 51.7062 55.7058 51.3577 56.1439 51.065C56.6716 50.7125 57.1992 50.3609 57.7567 50.0572C57.8663 49.9984 57.9658 49.9257 58.0653 49.856C58.2246 49.7455 58.3839 49.635 58.583 49.6051C58.6328 49.5982 58.6826 49.5702 58.7224 49.5394C59.1605 49.1819 59.5687 48.7985 59.8973 48.3335C60.2159 47.8863 60.4548 47.4054 60.6041 46.8776C60.6738 46.6506 60.7434 46.4245 60.7932 46.1945C60.8928 45.6966 60.8729 45.1937 60.8131 44.6939C60.7175 43.8346 60.4392 43.0058 59.9968 42.2631C59.947 42.1655 59.8873 42.0659 59.8375 41.9693C59.6583 41.6776 59.4591 41.4057 59.1903 41.1906C59.1326 41.1491 59.0822 41.0983 59.041 41.0403C58.9115 40.8481 58.7224 40.7196 58.5332 40.5962C58.3341 40.4667 58.145 40.3362 57.9459 40.2058C57.916 40.1889 57.8862 40.1769 57.8662 40.156C57.6074 39.9061 57.2689 39.8025 56.9702 39.6362C56.333 39.2866 55.7655 38.8604 55.3075 38.2928C55.0088 37.9244 54.77 37.5171 54.5211 37.1218C54.1627 36.5801 53.8042 36.0453 53.3761 35.5594C53.2517 35.4097 53.1037 35.2812 52.938 35.179C52.49 34.9181 52.0421 34.6712 51.5542 34.5049C51.2655 34.4043 50.9668 34.3455 50.6582 34.3077C50.4292 34.2788 50.2101 34.3117 50.0011 34.4023C49.8418 34.471 49.6725 34.5248 49.4933 34.5387C49.334 34.5507 49.1946 34.5118 49.0851 34.3764C48.9756 34.227 48.8064 34.1384 48.6471 34.0518C48.2744 33.8581 47.8696 33.734 47.4524 33.6853C46.5525 33.5628 45.6362 33.6633 44.7842 33.9781C44.2366 34.1842 43.7388 34.4799 43.3008 34.8852C42.8428 35.3144 42.4247 35.7794 42.0762 36.3012C41.9568 36.4805 41.8572 36.6677 41.7875 36.8738C41.7178 37.0571 41.6382 37.2343 41.5685 37.4146C41.5441 37.4774 41.5053 37.5336 41.4551 37.5786C41.4049 37.6236 41.3448 37.6561 41.2797 37.6735C41.1503 37.7084 41.0508 37.794 40.9412 37.8776C40.6724 38.0897 40.4434 38.3297 40.2443 38.6055C39.9655 38.9879 39.7166 39.3892 39.5075 39.8114C39.3482 40.1251 39.2288 40.4537 39.1591 40.7953C39.0894 41.1199 39.0994 41.4476 39.199 41.7682C39.2189 41.8309 39.2487 41.8479 39.3085 41.823C39.5872 41.7184 39.866 41.6686 40.1547 41.6597C40.4534 41.6497 40.7421 41.572 40.991 41.3958C41.1403 41.2902 41.2997 41.1976 41.459 41.093C41.907 40.7813 42.4048 40.626 42.9424 40.5633C43.3406 40.5165 43.7388 40.4975 44.137 40.5095C44.4258 40.5175 44.7145 40.5643 44.9932 40.6389C45.1724 40.6867 45.3417 40.7564 45.4711 40.8939C45.5209 40.9446 45.5707 41.0024 45.6005 41.0642C45.6702 41.2026 45.6006 41.3639 45.4513 41.4017C45.3793 41.4175 45.305 41.4198 45.2322 41.4087C45.1507 41.3965 45.0707 41.3761 44.9932 41.348C44.4556 41.1528 43.8882 41.1647 43.3307 41.2046C43.1117 41.2195 42.9026 41.2613 42.6835 41.2952C42.3848 41.343 42.116 41.4645 41.8671 41.6308C41.6779 41.7543 41.4888 41.8738 41.2996 41.9992C40.9611 42.2283 40.5728 42.3248 40.1647 42.3348C39.8262 42.3438 39.5275 42.4483 39.2388 42.6176C39.0795 42.7122 38.9301 42.8138 38.7708 42.9153C38.6513 42.996 38.5319 43.0737 38.3825 43.0627C38.3327 43.0597 38.2831 43.0886 38.2432 43.1205C37.6061 43.6781 36.9091 44.1761 36.3117 44.7865C35.2593 45.8414 34.3911 47.0652 33.7432 48.4072C33.6237 48.6492 33.554 48.9051 33.4843 49.162L32.8571 51.5379C32.8173 51.6863 32.7873 51.8387 32.6977 51.9701C32.6878 51.9871 32.6878 52.006 32.6778 52.0259C32.6479 52.1225 32.6679 52.227 32.7276 52.2798C32.8172 52.3455 32.9168 52.3535 32.9865 52.2997C33.3549 52.0548 33.7729 51.9393 34.1513 51.7471C34.3703 51.6365 34.5893 51.516 34.7984 51.3826C35.2753 51.0773 35.666 50.6549 35.9334 50.1558C36.0429 49.9576 36.1425 49.7565 36.2521 49.5583C36.4412 49.2048 36.6801 48.8822 36.9689 48.6073C37.1282 48.4609 37.3073 48.3315 37.5064 48.2428C37.5823 48.2134 37.6651 48.2068 37.7447 48.2238C37.8243 48.2408 37.8972 48.2806 37.9545 48.3384C38.0441 48.439 38.064 48.5655 37.9943 48.677C37.9247 48.7696 37.8549 48.8543 37.7752 48.936C37.7155 49.0017 37.6359 49.0594 37.5662 49.1172C37.3808 49.2642 37.2254 49.4453 37.1083 49.6509C36.8594 50.0771 36.6005 50.4954 36.3616 50.9255C36.0728 51.4623 35.6348 51.8596 35.1171 52.1723C34.8383 52.3426 34.5496 52.4849 34.241 52.6064C33.9025 52.7389 33.5739 52.8723 33.2354 52.9948C32.8272 53.1432 32.4588 53.3593 32.1104 53.6072C31.9511 53.7128 31.8018 53.8093 31.6425 53.9119C31.6013 53.938 31.5643 53.9702 31.5329 54.0075C31.3935 54.1877 31.2541 54.367 31.1844 54.5831C31.0948 54.825 31.0152 55.067 30.9355 55.311C30.8559 55.5868 30.8061 55.8697 30.826 56.1605C30.836 56.2312 30.836 56.3068 30.8161 56.3745C30.8007 56.4429 30.7701 56.5069 30.7265 56.5617C30.6867 56.6205 30.607 56.6085 30.5771 56.5478C30.5771 56.5378 30.5672 56.5289 30.5672 56.5189C30.4975 56.2819 30.3283 56.1236 30.1292 55.9812C29.5282 55.5368 28.8591 55.1931 28.148 54.9635C27.7497 54.837 27.4311 54.6209 27.1921 54.2714C27.0333 54.032 26.8306 53.8249 26.5948 53.661C26.4952 53.5913 26.3858 53.5255 26.2763 53.4887C26.0572 53.422 25.9078 53.5156 25.8481 53.7277C25.8282 53.8253 25.8082 53.9319 25.8182 54.0314C25.8481 54.3372 25.9079 54.6378 26.0174 54.9276C26.1568 55.2722 26.2762 55.6197 26.4753 55.9354C26.5151 56.0041 26.545 56.0847 26.5649 56.1644C26.6346 56.6045 26.8238 57.0038 27.0229 57.3972C27.5593 58.4783 28.3693 59.4002 29.3725 60.0709C30.4179 60.781 31.5429 61.3465 32.7276 61.7937C33.0861 61.9311 33.4444 62.0137 33.7829 61.9849ZM52.5696 45.4278C52.4004 45.4307 52.3109 45.4108 52.2611 45.3212C52.1914 45.2127 52.2113 45.1031 52.281 45.0035C52.3109 44.9537 52.3507 44.9069 52.4005 44.8691C52.4801 44.8063 52.5697 44.7446 52.6593 44.6968C52.7888 44.6241 52.9281 44.5584 53.0674 44.5006C54.0332 44.1103 55.0287 44.0018 56.0542 44.1033C56.4027 44.1382 56.7412 44.1392 57.0697 43.9789C57.2191 43.9062 57.3684 43.948 57.458 44.0625C57.5476 44.173 57.5576 44.3383 57.4779 44.4668C57.4481 44.521 57.4067 44.5682 57.3569 44.605C57.3071 44.6418 57.2498 44.6673 57.1892 44.6799C56.8407 44.7775 56.4923 44.8342 56.1339 44.7884C55.7772 44.7462 55.4174 44.7342 55.0586 44.7526C54.4414 44.7794 53.8441 44.906 53.2666 45.147C53.1272 45.2067 52.9978 45.2833 52.8484 45.3401C52.7389 45.3849 52.6194 45.4128 52.5696 45.4278ZM41.3892 58.4597C40.7839 58.4824 40.1789 58.4077 39.5972 58.2387C39.5574 58.2267 39.5176 58.2247 39.4778 58.2137C39.2992 58.1651 39.112 58.1576 38.9301 58.1919C38.7808 58.2158 38.6315 58.2227 38.4722 58.2257C38.3328 58.2277 38.2432 58.146 38.1934 58.0245C38.1436 57.909 38.1735 57.8035 38.2432 57.7099C38.2813 57.6612 38.3294 57.6213 38.3845 57.5931C38.4395 57.5649 38.5 57.549 38.5618 57.5466C38.6713 57.5376 38.7708 57.5366 38.8703 57.5187C39.1093 57.4778 39.3383 57.4829 39.5673 57.5406C39.7067 57.5755 39.8461 57.6113 39.9855 57.6412C40.1548 57.6771 40.3239 57.7188 40.5031 57.7388C41.0806 57.8055 41.658 57.8174 42.2454 57.7457C42.345 57.7338 42.4446 57.7388 42.5441 57.7816C42.7034 57.8503 42.7632 58.0176 42.6835 58.164C42.6521 58.2185 42.6077 58.2644 42.5541 58.2974C42.4645 58.3462 42.3749 58.386 42.2753 58.4109C41.9866 58.4826 41.6879 58.4547 41.3892 58.4597ZM57.5875 31.0584C57.5756 31.9277 57.4244 32.7893 57.1395 33.6106C56.9105 34.238 56.6715 34.8593 56.3529 35.4449C56.2135 35.6958 56.0941 35.9567 55.9646 36.2126C55.9248 36.2853 55.8751 36.3162 55.7855 36.2913C55.6379 36.2468 55.4792 36.2556 55.3374 36.3162C55.1881 36.3769 55.1085 36.4905 55.1184 36.6498C55.1184 36.7295 55.1384 36.8111 55.1583 36.8878C55.218 37.0561 55.3175 37.2005 55.427 37.3339C55.5365 37.4594 55.6361 37.5839 55.7357 37.7153C55.9746 38.031 56.2533 38.3008 56.5719 38.5229C56.8607 38.7201 57.1593 38.8993 57.4481 39.0885C57.5277 39.1383 57.6173 39.1841 57.677 39.2479C57.7567 39.3295 57.8363 39.3295 57.9259 39.2877C58.1449 39.1901 58.2147 39.0696 58.2147 38.8326C58.2176 38.676 58.1646 38.5235 58.0653 38.4024C57.9359 38.2321 57.936 38.0668 58.0156 37.8866C58.1351 37.6347 58.2247 37.3717 58.364 37.1357C58.8618 36.3102 59.2003 35.425 59.4791 34.5099C59.6882 33.8028 59.8374 33.0809 59.9171 32.345C59.9868 31.6619 60.0067 30.9778 59.947 30.2887C59.8736 29.4205 59.6827 28.5662 59.3796 27.7494C59.0303 26.8243 58.4948 25.9807 57.8065 25.2708C56.8771 24.3067 55.6751 23.65 54.3618 23.3888C53.8189 23.2717 53.2642 23.2183 52.709 23.2295C51.8429 23.2544 50.9967 23.3987 50.1704 23.6606C50.1305 23.6726 50.1007 23.6875 50.0609 23.7034C49.8916 23.7731 49.8617 23.8379 49.8816 24.0122C49.8916 24.1795 49.9513 24.3328 50.0409 24.4732C50.1903 24.7281 50.3495 24.9771 50.5088 25.228C50.5984 25.3714 50.7378 25.467 50.8872 25.5407C51.0365 25.6164 51.1858 25.6333 51.3551 25.5865C51.8031 25.4641 52.261 25.4132 52.729 25.4212C53.8241 25.4411 54.7899 25.8056 55.6262 26.5086C56.4326 27.1788 56.9503 28.0351 57.2689 29.022C57.4879 29.6912 57.5775 30.3793 57.5875 31.0584Z" fill="black"/>
</svg>
